<svg width="32" height="32" viewBox="0 0 32 32" fill="none" xmlns="http://www.w3.org/2000/svg">
<g id="view (1) 1">
<path id="Vector" d="M0.876094 14.957L0.876159 14.9569C4.63046 10.4202 10.2362 6.15718 16.0001 6.15718C21.7627 6.15718 27.3671 10.4171 31.1239 14.9568C31.6265 15.5645 31.6241 16.4438 31.124 17.0486C30.1869 18.181 28.2225 20.366 25.6049 22.2714L25.6049 22.2714C22.3039 24.6744 19.1325 25.844 15.9947 25.8427C12.8569 25.8415 9.68903 24.6692 6.39523 22.2714L6.39522 22.2714C3.77764 20.366 1.81322 18.181 0.87616 17.0486L0.876094 17.0485C0.374635 16.4428 0.374635 15.5627 0.876094 14.957ZM23.3971 16.0027C23.3971 11.9234 20.0794 8.6057 16.0001 8.6057C11.9207 8.6057 8.60302 11.9234 8.60302 16.0027C8.60302 20.0821 11.9207 23.3998 16.0001 23.3998C20.0794 23.3998 23.3971 20.0821 23.3971 16.0027Z" stroke="white"/>
</g>
</svg>
