<svg width="22" height="20" viewBox="0 0 22 20" fill="none" xmlns="http://www.w3.org/2000/svg">
<g id="Up_Down">
<g id="Path">
<path id="Vector" d="M21.7077 13.2925C21.5202 13.105 21.2659 12.9997 21.0007 12.9997C20.7356 12.9997 20.4813 13.105 20.2937 13.2925L17.0009 16.5853V0.999961C17.0009 0.734755 16.8955 0.480411 16.708 0.292882C16.5205 0.105353 16.2661 0 16.0009 0C15.7357 0 15.4814 0.105353 15.2938 0.292882C15.1063 0.480411 15.0009 0.734755 15.0009 0.999961V16.5853L11.7081 13.2925C11.5195 13.1103 11.2669 13.0095 11.0047 13.0118C10.7425 13.0141 10.4917 13.1193 10.3063 13.3047C10.1209 13.4901 10.0157 13.7409 10.0135 14.003C10.0112 14.2652 10.112 14.5178 10.2941 14.7064L15.2939 19.7062C15.3868 19.7993 15.4972 19.8732 15.6187 19.9236C15.7401 19.9741 15.8704 20 16.0019 20C16.1334 20 16.2637 19.9741 16.3852 19.9236C16.5066 19.8732 16.617 19.7993 16.7099 19.7062L21.7097 14.7064C21.8969 14.5186 22.0018 14.2642 22.0015 13.999C22.0011 13.7339 21.8954 13.4797 21.7077 13.2925Z" fill="white"/>
<path id="Vector_2" d="M11.7081 5.29281L6.70829 0.293009C6.61516 0.199694 6.50433 0.12592 6.38231 0.0760178C6.13769 -0.0250951 5.86296 -0.0250951 5.61834 0.0760178C5.49631 0.12592 5.38548 0.199694 5.29235 0.293009L0.292545 5.29281C0.105044 5.48058 -0.000187279 5.73514 2.50212e-07 6.00049C0.000187779 6.26584 0.105779 6.52026 0.293545 6.70776C0.481311 6.89526 0.735871 7.00049 1.00122 7.0003C1.26658 7.00011 1.52099 6.89452 1.70849 6.70676L5.00136 3.41389V18.9993C5.00136 19.2645 5.10671 19.5188 5.29424 19.7064C5.48177 19.8939 5.73611 19.9992 6.00132 19.9992C6.26653 19.9992 6.52087 19.8939 6.7084 19.7064C6.89593 19.5188 7.00128 19.2645 7.00128 18.9993V3.41389L10.2942 6.70676C10.4827 6.88891 10.7353 6.9897 10.9975 6.98742C11.2597 6.98514 11.5105 6.87998 11.6959 6.69458C11.8813 6.50917 11.9865 6.25837 11.9888 5.99619C11.991 5.734 11.8902 5.48141 11.7081 5.29281Z" fill="white"/>
</g>
</g>
</svg>
