<svg width="32" height="32" viewBox="0 0 32 32" fill="none" xmlns="http://www.w3.org/2000/svg">
<g id="view (1) 1">
<path id="Vector" d="M16.0002 20.9292C18.721 20.9292 20.9266 18.7235 20.9266 16.0027C20.9266 13.2819 18.721 11.0763 16.0002 11.0763C13.2794 11.0763 11.0737 13.2819 11.0737 16.0027C11.0737 18.7235 13.2794 20.9292 16.0002 20.9292Z" fill="white"/>
<path id="Vector_2" d="M31.5092 14.6381C27.7223 10.0621 21.9901 5.65718 16.0001 5.65718C10.0089 5.65718 4.27527 10.0651 0.490952 14.6381C-0.163651 15.4288 -0.163651 16.5767 0.490952 17.3674C1.44237 18.5171 3.43697 20.7365 6.10096 22.6756C12.8101 27.5597 19.1752 27.5705 25.8992 22.6756C28.5631 20.7365 30.5577 18.5171 31.5092 17.3674C32.1619 16.5782 32.1653 15.4314 31.5092 14.6381ZM16.0001 9.1057C19.8033 9.1057 22.8971 12.1995 22.8971 16.0027C22.8971 19.806 19.8033 22.8998 16.0001 22.8998C12.1968 22.8998 9.10302 19.806 9.10302 16.0027C9.10302 12.1995 12.1968 9.1057 16.0001 9.1057Z" fill="white"/>
</g>
</svg>
